<?xml version="1.0" standalone="no"?><!DOCTYPE svg PUBLIC "-//W3C//DTD SVG 1.1//EN" "http://www.w3.org/Graphics/SVG/1.1/DTD/svg11.dtd"><svg t="1685089307117" class="icon" viewBox="0 0 1024 1024" version="1.1" xmlns="http://www.w3.org/2000/svg" p-id="2469" xmlns:xlink="http://www.w3.org/1999/xlink" width="200" height="200"><path d="M864 769c0 35.346-28.654 64-64 64H162c0-35.346 28.654-64 64-64h638z m-16-657c35.346 0 64 28.654 64 64v464c0 35.346-28.654 64-64 64H176c-35.346 0-64-28.654-64-64V176c0-35.346 28.654-64 64-64h672z m0 64H176v464h672V176z m-500 80l0.001 102.435C369.315 368.82 384 390.695 384 416c0 25.304-14.685 47.179-35.999 57.565L348 520c0 30.619-24.573 55.498-55.074 55.992L292 576V473.566c-21.314-10.386-36-32.261-36-57.566s14.686-47.18 36-57.566V312c0-30.928 25.072-56 56-56z m192 0l0.001 102.435C561.315 368.82 576 390.695 576 416c0 25.304-14.685 47.179-35.999 57.565L540 520c0 30.619-24.573 55.498-55.074 55.992L484 576V473.566c-21.314-10.386-36-32.261-36-57.566s14.686-47.18 36-57.566V312c0-30.928 25.072-56 56-56z m192 0l0.001 102.435C753.315 368.82 768 390.695 768 416c0 25.304-14.685 47.179-35.999 57.565L732 520c0 30.619-24.573 55.498-55.074 55.992L676 576V473.566c-21.314-10.386-36-32.261-36-57.566s14.686-47.18 36-57.566V312c0-30.928 25.072-56 56-56z" fill="#0840F8" p-id="2470" class="custom-cursor-on-hover"></path></svg>